<?xml version="1.0" encoding="utf-8"?>
<!-- Generator: Adobe Illustrator 15.0.0, SVG Export Plug-In . SVG Version: 6.00 Build 0)  -->
<!DOCTYPE svg PUBLIC "-//W3C//DTD SVG 1.1//EN" "http://www.w3.org/Graphics/SVG/1.1/DTD/svg11.dtd">
<svg version="1.1" id="Layer_1" xmlns="http://www.w3.org/2000/svg" xmlns:xlink="http://www.w3.org/1999/xlink" x="0px" y="0px"
	 width="1024px" height="189px" viewBox="173 205.5 1024 189" enable-background="new 173 205.5 1024 189" xml:space="preserve">
<g transform="translate(100,50)">
	<circle fill-opacity="0" cx="-9318.521" cy="0" r="3"/>
	<circle fill-opacity="0" cx="-1712.495" cy="0" r="3"/>
	<circle fill-opacity="0" cx="9711.02" cy="0" r="3"/>
	<circle fill-opacity="0" cx="9867.869" cy="0" r="3"/>
	<circle fill-opacity="0" cx="85807.031" cy="0" r="3"/>
</g>
<path id="EDA" opacity="0.8" fill="#B6E1F2" stroke="#2CC4FF" enable-background="new    " d="M168.5,398.588l0.576-10.664
	l0.576,0.439h0.577h0.577h0.576h0.576h0.577h0.576l0.576,0.875h0.576h0.578h0.576l0.576-0.875l0.576,0.438l0.576-0.438l0.577,0.438
	l0.576,0.438h0.577h0.576h0.577h0.576h0.576h0.577h0.576h0.577h0.576h0.576h0.576l0.576,0.44l0.577-0.44h0.575h0.577h0.577h0.576
	h0.576h0.576h0.577h0.576h0.577h0.576h0.576h0.577l0.577-0.875l0.576,0.875h0.576l0.577-0.875h0.576h0.576h0.576l0.577,0.875h0.576
	l0.576-0.875h0.577h0.576l0.577-0.439l0.576,0.439l0.576-0.439l0.576,0.439l0.577-0.439h0.576h0.576h0.576h0.576l0.577,0.439
	l0.576-0.439h0.576l0.576,0.439h0.577l0.577,0.438l0.576,0.438h0.577h0.576h0.576h0.577l0.576-0.438l0.577,0.438h0.576h0.577
	l0.576,0.877h0.576h0.577h0.576h0.576l0.576,0.582l0.577-0.582h0.576l0.576-0.877h0.577h0.576h0.577h0.576h0.577h0.576l0.576,0.877
	l0.577-0.877l0.576,0.877h0.577l0.576-0.877h0.577l0.577-0.875l0.576-0.439l0.576-1.312l0.577-0.584l0.577-0.875l0.576-2.773
	l0.576-1.46l0.577-1.314l0.576-1.46l0.576-5.838l0.577-1.46l0.577-3.503l0.576-1.021l0.577-6.132l0.577-2.045l0.576,0.584
	l0.576,1.461h0.576h0.576h0.576h0.577h0.577h0.576h0.576l0.576,1.021l0.577-1.021l0.576,0.582l0.577,1.024l0.576-1.024l0.577,0.439
	h0.576h0.576h0.577l0.576-2.482l0.578-1.604l0.576-1.608h0.577l0.576,1.024l0.576,0.584l0.577,1.604h0.576h0.577l0.577,0.877
	l0.577,0.584l0.575-1.461h0.576l0.577-6.422l0.576-1.606h0.577l0.576,1.606l0.577,1.605h0.576l0.576-0.438l0.577-1.752l0.575-1.022
	l0.578-1.021l0.576-0.585h0.576l0.576,1.605h0.576l0.577,1.168l0.576,0.438h0.577h0.576l0.577,1.605h0.576h0.576h0.576h0.577
	l0.577,1.604l0.576-0.582l0.577,0.582h0.576l0.576,1.024h0.577l0.576-1.024l0.577,1.024l0.576,0.584h0.577h0.576l0.576,1.02
	l0.577-0.583l0.576,1.167h0.576h0.576h0.577h0.576h0.577l0.576,1.461h0.577h0.577h0.576h0.577h0.575l0.577,1.021h0.577l0.576,0.585
	h0.576h0.576h0.577h0.576l0.577,1.02h0.576h0.577h0.576h0.576h0.576h0.577h0.576h0.576l0.577,0.44h0.576h0.576l0.577,0.584
	l0.576,0.437l0.576,0.584l0.577-0.584l0.577,0.584h0.576h0.576l0.577,0.438h0.577l0.576,0.584l0.576,0.439h0.577h0.576h0.576h0.577
	h0.576h0.576l0.577-0.584l0.577,0.584h0.576l0.576,0.438l0.577-0.438h0.576h0.576h0.577l0.576-0.584l0.576,1.605h0.576h0.576
	l0.577,0.437h0.576h0.577l0.576,1.022h0.576l0.577-1.022l0.576,1.022h0.577h0.576l0.577-0.438l0.577,1.022h0.576l0.575-0.584h0.577
	h0.577l0.576-1.022l0.577,1.022h0.577l0.577,0.584h0.575h0.577h0.576h0.576h0.577h0.577l0.576,0.438l0.576-0.438l0.577,0.438
	l0.576-0.438l0.576,1.021l0.577-0.584l0.577-0.438l0.576,0.438l0.576,0.584l0.577-1.605l0.576-0.438l0.576,0.438h0.577l0.576-0.438
	l0.576-0.584l0.576,0.584l0.576-0.584l0.576,0.584l0.577-0.584l0.577-0.437l0.576-1.605l0.576,0.584l0.576,0.438l0.576-0.438
	l0.577,0.438l0.577,0.584l0.575-1.021l0.577,0.438l0.577,0.584h0.575l0.577-0.584l0.576,0.584h0.577l0.576-0.584h0.577h0.576
	l0.576,0.584l0.577-0.584l0.576-0.438h0.577l0.576-3.506l0.578-3.064l0.575-2.626l0.576-1.171l0.577-5.837l0.576-1.022l0.577-1.168
	l0.576-1.021l0.577,1.021l0.576,1.168l0.576-0.438l0.577-0.73l0.576-1.604l0.577-1.608l0.576-1.165l0.576,0.145l0.576-0.729
	l0.576-1.168l0.576,1.897l0.576-0.729l0.577,0.729l0.576-2.919h0.577l0.577,1.168l0.577,1.751l0.575-0.145h0.577l0.577,1.165
	l0.575,0.584l0.577-1.166h0.576l0.577,1.166l0.576-0.584h0.577l0.577,1.608l0.575,1.165l0.577,0.439h0.576h0.576l0.576,0.73h0.577
	l0.577-0.145h0.576l0.577,0.582l0.576,1.022l0.577,0.583l0.576,0.584h0.576h0.577l0.576,1.022l0.577,0.584h0.576h0.577h0.576
	l0.576-1.606l0.577-1.167l0.576-0.438l0.577-1.167l0.576-0.586l0.577,0.73l0.575-1.752l0.577,1.607l0.578,0.582l0.576,1.022h0.576
	h0.576l0.577,1.751l0.575-0.584h0.577l0.577,1.606h0.575h0.577l0.576,0.584l0.576,1.021h0.576h0.577h0.577l0.576-1.167l0.576,1.167
	l0.577-1.167l0.576-0.438l0.577-1.606h0.576h0.576l0.577,1.022l0.576,0.584h0.576l0.577,1.021l0.577,1.169l0.576-0.585l0.577,0.438
	h0.576h0.577l0.576,1.02h0.577h0.576h0.576h0.577h0.576h0.576h0.576h0.577h0.576h0.577h0.576h0.576h0.576l0.576-1.02h0.577
	l0.576,1.02l0.577-1.02l0.577,0.582h0.575l0.577,0.438h0.576h0.577h0.576h0.577h0.576h0.576h0.576h0.577h0.577h0.577h0.576h0.576
	h0.576h0.577h0.575h0.578l0.577-1.02l0.575-2.044l0.577-3.796l0.576-3.209l0.577-1.754l0.575-2.773l0.578-0.584l0.576-2.336
	l0.576-0.438h0.576h0.577h0.576l0.577-0.731l0.577,0.731h0.576h0.576h0.577h0.576h0.576l0.576,1.606h0.578h0.575h0.577h0.577h0.576
	h0.577l0.575-3.357l0.577-1.752l0.576,1.169l0.577-1.169l0.576,1.169l0.577,0.583l0.576,1.751l0.577,0.438l0.576,1.168l0.577,1.168
	h0.576l0.576-1.168h0.576h0.577l0.576-1.606l0.578-1.751l0.577-1.752h0.576l0.576-1.752l0.577,0.585l0.577,1.167h0.575h0.578h0.576
	l0.576,1.752h0.576h0.577h0.575l0.577-0.583l0.576-1.896l0.576-2.773l0.576-1.754h0.577l0.577-0.583l0.576,1.898l0.577,0.438
	l0.577,1.749h0.576l0.576,1.752l0.577,1.169l0.576-1.169l0.577,1.169l0.576,0.583h0.577h0.576h0.577h0.576l0.577,1.751h0.576h0.577
	l0.576-0.731l0.577,0.731h0.576h0.576l0.577,0.438h0.576l0.576,1.168h0.576h0.577h0.576h0.576l0.576-1.606l0.577-1.751l0.575-1.752
	l0.577-1.752l0.576-1.749h0.577l0.576,0.582l0.577,1.167l0.576,1.024l0.576,0.728h0.577h0.576l0.576,1.169h0.576l0.577,0.583
	l0.576-0.583l0.577-0.147l0.576,0.147h0.576h0.577l0.576-1.169h0.576l0.577-1.167l0.576-2.772l0.577-3.65l0.576-4.817l0.577-5.547
	l0.576-5.691h0.577l0.576,1.458l0.577,2.335l0.575,1.898l0.577,1.313l0.576,0.584l0.576,1.752l0.577,1.168l0.576,0.729h0.577h0.576
	l0.577,1.314l0.576-0.731l0.576,1.169h0.577l0.577,1.313l0.576-1.751l0.576,0.438l0.576,1.313h0.577l0.575,0.586l0.578-0.586h0.576
	l0.577-2.482l0.575-0.583l0.576-3.649l0.577-0.584l0.576-3.212l0.577,0.584l0.576,1.314l0.577,1.313l0.576-2.628l0.576-2.48
	l0.576-2.337l0.576-7.298l0.577-3.357l0.577-0.583h0.576l0.576,2.043l0.576,1.897l0.577,1.168l0.575,3.357l0.577,1.313l0.576,1.459
	h0.577l0.576,1.898h0.576h0.577l0.575,0.438l0.578,1.46l0.576,0.437h0.577l0.576,1.316l0.577,0.582h0.576l0.576-0.731l0.577,0.731
	l0.577-0.731l0.576,1.315h0.576l0.576-0.584l0.577,1.313h0.576l0.577-2.045l0.576,0.731h0.577h0.575h0.577l0.576,1.313h0.576h0.577
	h0.575h0.577l0.575-0.292l0.577,0.876h0.576h0.577h0.576h0.577l0.577,0.438l0.576-0.438h0.576l0.577,1.314l0.577-0.876l0.576-0.438
	l0.576-0.584l0.577-0.729l0.576,1.313h0.577l0.577,0.438l0.576-0.438l0.577,1.314h0.576l0.577-0.876l0.576-0.438l0.577,1.314h0.576
	h0.577h0.576l0.577-0.876l0.576,1.313l0.577-0.731l0.576,0.731l0.576-1.752l0.577-1.897l0.577-3.212l0.576-2.92l0.576-1.459
	l0.577-3.212l0.576-1.167h0.577l0.576-0.876l0.577,1.46l0.576,1.314l0.577,0.583l0.576,0.584h0.576l0.576,0.585l0.577-2.045
	l0.575-1.605l0.577-1.46l0.577-2.773l0.576,0.876l0.576,1.461l0.577,0.437l0.577,1.46l0.576-0.876l0.577,1.46l0.576,0.583
	l0.576,1.314h0.576l0.578,1.314l0.575,0.583l0.577-0.729l0.576,0.729l0.577-0.729l0.576,1.313l0.577,0.874l0.576-0.874h0.577h0.576
	l0.576,0.874l0.576-0.874l0.577,0.874l0.577-2.188l0.576,0.729l0.577-0.729l0.576,1.313h0.576l0.577,2.772l0.577-0.873h0.575
	l0.577-1.025l0.577-3.356l0.577-3.357l0.575-4.525l0.577-1.461l0.576-1.459l0.576-0.438l0.576,2.336l0.577,1.022l0.576,0.583
	l0.576,2.042h0.577h0.575l0.576-1.458l0.577-0.584h0.577h0.575l0.576-2.045l0.577-1.897l0.576-2.044l0.577-2.043l0.576-0.583
	l0.576-1.459l0.577-2.189l0.575-2.044l0.577,2.044l0.576,0.582l0.577,1.607l0.576,2.043l0.577-1.605l0.576,1.022l0.577-1.459h0.576
	h0.577l0.578-0.584h0.575l0.578,0.584h0.576l0.576,1.459l0.577,0.876l0.577,0.583l0.577-2.919l0.576,3.504l0.576-2.045l0.577-1.459
	l0.575,0.875l0.577,0.584l0.576-1.459h0.577h0.576l0.577-2.189l0.575,1.604l0.576,1.459l0.577-0.875l0.576,1.459l0.577,0.583
	l0.575,1.461h0.577h0.576l0.577-1.461l0.576-0.583h0.576l0.577-0.584l0.576-3.064l0.576-0.585l0.577-1.459h0.576h0.577h0.576h0.578
	l0.576,1.459l0.577-1.459l0.577-2.043l0.575-2.19l0.577-2.773l0.577-2.189h0.577l0.575-1.461h0.577h0.576l0.576,0.585l0.576,1.46
	h0.577l0.576,1.605h0.576l0.576,2.189h0.577l0.576-1.606l0.576,1.606l0.576-2.189h0.577l0.576-1.605h0.577l0.576,1.605h0.576
	l0.576,3.211l0.576-0.438h0.577l0.575,2.19h0.577l0.575,0.875l0.578,0.584h0.575h0.577h0.576l0.576-1.46l0.576-2.19l0.577-2.189
	l0.576-0.583l0.576-1.605h0.576l0.577,1.605l0.576,0.583l0.576,2.189h0.577l0.576-0.583h0.576h0.576l0.577,0.583h0.576h0.577
	l0.576,0.584h0.577l0.576,1.606h0.577h0.576l0.576,1.46l0.576,0.583h0.577l0.576,1.459h0.577h0.577l0.576,0.585l0.577-0.585
	l0.576,0.585l0.576-0.585l0.577-1.459l0.577-1.459l0.575,0.875l0.577-1.46h0.576l0.577,0.584l0.575,0.875l0.577-2.482l0.576,1.022
	l0.577-0.584h0.576l0.577,0.584h0.576h0.577h0.576h0.577h0.577h0.576l0.577,1.46h0.575h0.577h0.576h0.577h0.577h0.576l0.576-1.46
	h0.576h0.576h0.577h0.575h0.578h0.575h0.577l0.575,1.46h0.577l0.577-1.46l0.577,1.46h0.576l0.576,1.168l0.576-0.585h0.576h0.576
	h0.577h0.577l0.576-0.583h0.577h0.575h0.577h0.576h0.578l0.575-2.044l0.577-8.03l0.576-11.823l0.576-8.612l0.576-5.4l0.576-2.481
	l0.576-1.752l0.577,1.752l0.576,2.481l0.576,2.336l0.578,0.583l0.575,2.481h0.577l0.574,1.751l0.578,2.336h0.575l0.577,1.167
	l0.577-0.584l0.575,2.189l0.576,1.752l0.575-1.752l0.577,1.752h0.575l0.577-1.021h0.578l0.574,1.021l0.577,2.336h0.576h0.577
	l0.575-1.168l0.577,1.751h0.577l0.574,1.606h0.577h0.575l0.578,0.584h0.574h0.578l0.575,0.584l0.576,1.022h0.577h0.576h0.576h0.576
	h0.576h0.577l0.575-1.022l0.577,1.605l0.575,0.584l0.577,1.021l0.576-1.606l0.575,0.584l0.578,0.438l0.575-1.022h0.577l0.576-0.583
	h0.576h0.575l0.577-1.606l0.576,0.584l0.577-1.606l0.576,1.021l0.576,1.606h0.576l0.574-1.022l0.578,1.022l0.577,2.189h0.575
	l0.577-1.606l0.576,1.606l0.575,0.73l0.576,0.584l0.576,1.021l0.578-1.021l0.576,1.021l0.576,0.583l0.576,0.585l0.575-0.585
	l0.576-0.583l0.577-1.021l0.576,1.604h0.576h0.576h0.576h0.576h0.575h0.578h0.577l0.575,1.461l0.576-0.292h0.576h0.576l0.576,0.876
	h0.575l0.579,0.583l0.575-0.583h0.576l0.575,0.583l0.577,1.021h0.576h0.576h0.576l0.578,2.189l0.574-1.021h0.576l0.576,1.021h0.577
	l0.576-3.794l0.577,1.605h0.576h0.576l0.575-3.65l0.576-0.583l0.577-1.605l0.576-2.919l0.577-4.38l0.575-4.088l0.577-1.605
	l0.576-2.335h0.575h0.576l0.577,1.168l0.576-1.168h0.576h0.576l0.577,1.168l0.576,1.167h0.575h0.577l0.576,1.023l0.576-0.438
	l0.576,1.752h0.577h0.577h0.575l0.575,1.021l0.578-2.772l0.575-0.584h0.576h0.576l0.578-1.751l0.574,2.336l0.575,1.752h0.577
	l0.578-1.752l0.575,1.752h0.576h0.578h0.574h0.576h0.576h0.578h0.576h0.576l0.576,1.021l0.575-1.021h0.576h0.577l0.575-2.336
	l0.578-2.335h0.575l0.576-2.336h0.575h0.577l0.577,1.752l0.576,0.584h0.577l0.576,2.335h0.575l0.575,0.584l0.578,1.752h0.576
	l0.576-1.752l0.576,1.021l0.577-1.605l0.576,2.336l0.574-1.752h0.576h0.578h0.576l0.575,1.752l0.577-1.752l0.577,1.752h0.575h0.575
	h0.577h0.577h0.575h0.577h0.577h0.575h0.576h0.576l0.577,1.604l0.575-1.604h0.577h0.576h0.577h0.575l0.577-2.336h0.574l0.578,0.584
	l0.576,1.752h0.576h0.577h0.575h0.576l0.575,0.583l0.578-0.583h0.577l0.575,1.604l0.576,0.584h0.575h0.577h0.576l0.575,1.751
	l0.579-1.751l0.576,1.751l0.576-1.751l0.573,1.751l0.578-1.751h0.576h0.576h0.576h0.578h0.575h0.574l0.579-0.584h0.575l0.576-1.604
	h0.577l0.577,1.604l0.576-1.604l0.573,1.604l0.577,0.584l0.577-0.584l0.576-1.021h0.577l0.576,1.021h0.576l0.575,0.584l0.576-0.584
	l0.576,2.335l0.577-1.751h0.577h0.575h0.578h0.574l0.577,1.751l0.576,0.584h0.577h0.575h0.576h0.577h0.575l0.577,1.022l0.577,0.584
	l0.574,0.584h0.578l0.575-1.022l0.577,1.022l0.574,1.605h0.578l0.576-1.605h0.576l0.577-0.584l0.576-1.606l0.576-2.919l0.574-1.604
	h0.578h0.577h0.574h0.576l0.578-4.672l0.577-2.336h0.573h0.577h0.577l0.575,1.752l0.577,0.584h0.575l0.579,1.751l0.573-1.751h0.577
	h0.576h0.576l0.577,2.335h0.576h0.578l0.574,1.605l0.575,0.731h0.577h0.577h0.576l0.576,0.583l0.577-0.583l0.576,1.604l0.575,0.584
	h0.576h0.575h0.579h0.575h0.577l0.575,1.751h0.576h0.577h0.574l0.579-0.583l0.575,1.167h0.577h0.574h0.577l0.577,2.19h0.575h0.576
	h0.578l0.575,1.605h0.574h0.577h0.578h0.575h0.577l0.575,0.584l0.578-0.584h0.574h0.576l0.578,0.584l0.575,0.584l0.577,1.167h0.574
	h0.579h0.575h0.575h0.577l0.577,0.584h0.576h0.575h0.576h0.577h0.576l0.576,0.583l0.576-0.583h0.576h0.576l0.577,1.604l0.577-1.604
	l0.575,2.19l0.577-2.19l0.574,1.604h0.578h0.575l0.577,0.585h0.576l0.576-0.585h0.577h0.573h0.577h0.578h0.576l0.575,0.585h0.576
	l0.578-0.585l0.574,0.585h0.576l0.576-1.022l0.578,1.022h0.576h0.575l0.577-1.022l0.576,1.022h0.576h0.575l0.579-0.585l0.574-0.437
	l0.576,0.437h0.576l0.576,0.585l0.577-0.585l0.576,2.045l0.576-2.482l0.577,1.022l0.574,1.46h0.577l0.575-0.292l0.578,0.875h0.576
	h0.577l0.576,1.605h0.575h0.576l0.576-1.021l0.577-0.584h0.576h0.577h0.575h0.577h0.576l0.575,1.605h0.576l0.577-1.605l0.576,0.584
	l0.576,1.021h0.574h0.579h0.576h0.575l0.577,1.606l0.576-1.021l0.576,0.583l0.575,0.438l0.578-0.438h0.576h0.575l0.576-1.604
	l0.578,1.021l0.575-0.584l0.576-1.021l0.576-0.584l0.577-2.043h0.575h0.575l0.577-1.022l0.577,1.022h0.576h0.576l0.576,1.46
	l0.576-1.46h0.576l0.576,0.584l0.578-1.606l0.575,2.482l0.576-0.876l0.575,0.584h0.577l0.576,0.875l0.577,0.584l0.575,1.021
	l0.578-1.021l0.575,1.021l0.575,1.606l0.576-2.626l0.578,3.21l0.576-1.022h0.576l0.575,1.022h0.577h0.575l0.576,0.584l0.577-1.021
	l0.577,1.605l0.576,1.022h0.576h0.576l0.576,0.584h0.575l0.576-1.023l0.578,1.023l0.576-1.023l0.575,1.023l0.575-1.023l0.578,1.461
	l0.576-1.461l0.576,1.023l0.576-1.023l0.577,1.023l0.575-1.023h0.576l0.577,1.023l0.576-1.023l0.575,1.023l0.577,1.459h0.577
	l0.575-1.021l0.576,1.606h0.576l0.577,1.459l0.576-0.876h0.576l0.575,0.876h0.577l0.577,0.582l0.575-1.458l0.576,2.043h0.578h0.575
	l0.576,1.022l0.575-1.022h0.577l0.576,1.022l0.576-0.438l0.577,0.876l0.576-0.876l0.577,2.481l0.574-1.021l0.578,1.021l0.575-1.021
	h0.576l0.576,1.021l0.577-1.021h0.576l0.576,1.606l0.576-1.606l0.577,1.606l0.575-1.606l0.576,1.021l0.576-1.021h0.578h0.575
	l0.577,1.021l0.576-1.021l0.575-1.46l0.576,1.46h0.576l0.577,1.021l0.576-1.021h0.577l0.574,1.021l0.577,1.023h0.577h0.575
	l0.576,1.021l0.577,1.022l0.577,1.022l0.574-1.022h0.575l0.579,0.584l0.575-0.584h0.577h0.577h0.575h0.575l0.576,0.584l0.578-0.584
	l0.576,0.584h0.577h0.574h0.578h0.575h0.575h0.577l0.577-0.584l0.577,2.045l0.573-1.46h0.577l0.578,0.438l0.574-1.022h0.577
	l0.577,0.584l0.577,1.46l0.574-1.46l0.576,1.46h0.577l0.575,0.583l0.577,1.461h0.576h0.577h0.575l0.577,0.875h0.575l0.577-0.875
	h0.576h0.576h0.576h0.576l0.577,1.458l0.576-0.584h0.576l0.577-0.875h0.574h0.577h0.576l0.577-1.461l0.577-0.583h0.573l0.579-1.46
	h0.575l0.576-0.584h0.575h0.578h0.576h0.575h0.576h0.577l0.577-0.437l0.574-2.043l0.579-3.067l0.576-0.584h0.574l0.576,0.584
	l0.577,1.46h0.577h0.575h0.576h0.579h0.572h0.577h0.576h0.578h0.575h0.576h0.577l0.575-2.044h0.576l0.576-2.043l0.577-4.233
	l0.576-4.378l0.577-1.168l0.575-0.876h0.576h0.576l0.576,2.044h0.577h0.576h0.577h0.576l0.573,1.605l0.579,0.583h0.575h0.577h0.575
	l0.577-0.583h0.577h0.574h0.576h0.578l0.576-1.605l0.575-2.044l0.577-2.191l0.577-2.918l0.575-1.606h0.576h0.577h0.577l0.573,1.606
	h0.577l0.578,1.751l0.574-1.167l0.577,1.751l0.576,0.583h0.577h0.576l0.575-2.334l0.577-2.19l0.576-5.109l0.576-3.94l0.576-5.256
	l0.577-7.152l0.575-6.714l0.577-0.584l0.576,0.584l0.577,1.897h0.575l0.576,2.336l0.576,0.729h0.577h0.576l0.576,1.752h0.574h0.578
	h0.575h0.577h0.576h0.577h0.577h0.574h0.577l0.575,2.335l0.577-1.752l0.575,1.752l0.578,0.73l0.577-3.065l0.573-1.752l0.576-2.481
	l0.578-0.584l0.576-2.481l0.576-4.379l0.576-0.73l0.578,7.591l0.574-6.861h0.576h0.575l0.579,2.482h0.575l0.576,2.482h0.578
	l0.573,1.897l0.577,0.584h0.576h0.578l0.576,1.752l0.575-1.752h0.576h0.577h0.575l0.576,1.752l0.577,0.729h0.577l0.575-2.481
	l0.576-1.314l0.576-2.481l0.576,0.73l0.576-1.897l0.577,1.897h0.575l0.577,0.584l0.577,1.897l0.575,0.584l0.577,1.752l0.575,0.729
	h0.577h0.575l0.577,1.752l0.577-1.752h0.575l0.575,1.752h0.578h0.576h0.575h0.576h0.578h0.576l0.574,0.583l0.576-0.583h0.578
	l0.575,0.583l0.576,1.752h0.578h0.576h0.575h0.575h0.578h0.576h0.575h0.577h0.577h0.576h0.575h0.575h0.578l0.575-1.752h0.577h0.576
	l0.576,1.752l0.575-2.335l0.577,2.335h0.577h0.576h0.576h0.576h0.575l0.577,0.73h0.576h0.576l0.577-0.73l0.577-1.752l0.575,1.752
	l0.574-2.335l0.577,2.335l0.577-2.335l0.576,2.335l0.575-2.335l0.579,1.751l0.575,0.584l0.575-1.752h0.577l0.576-0.583h0.576
	l0.576-1.752l0.577-2.481l0.576-3.065h0.574l0.577-1.897l0.578-0.584h0.575h0.576l0.576-1.898l0.577,1.898l0.576,2.481h0.576h0.575
	h0.578h0.574h0.577h0.576l0.577-1.313l0.576-0.584h0.575h0.579h0.574h0.576l0.576-0.584l0.577,0.584h0.576l0.576,0.584l0.575-0.584
	h0.577l0.576-1.314l0.576-1.897l0.576-4.963l0.577-6.569l0.576-1.313h0.576l0.574-1.314l0.579,1.314l0.575,2.043h0.576h0.577
	l0.575-3.941l0.576-3.357l0.576-2.628l0.578-2.043h0.576l0.575-0.729l0.576-2.044l0.576,2.044h0.577l0.575,0.729l0.576,2.043h0.578
	h0.576h0.574h0.576h0.577l0.576,0.584l0.577,1.459h0.577l0.576-2.043h0.575h0.575h0.579h0.574h0.577l0.577,2.628h0.575h0.577h0.575
	l0.576,2.044l0.577-0.731l0.576-0.73l0.576,0.73l0.575,1.313h0.577h0.576h0.576h0.577l0.577,0.73l0.574,1.898h0.576h0.578h0.575
	h0.577l0.574-1.898h0.579l0.575,0.584l0.575,1.314h0.577h0.576h0.577h0.575h0.575h0.579l0.574-1.314l0.576,1.314h0.577l0.577-1.314
	l0.575,3.357h0.576h0.577h0.576h0.576l0.575,0.583h0.578h0.574h0.577h0.576l0.577-0.583l0.577,0.583l0.574-1.896l0.577,1.896h0.575
	l0.577-1.313h0.577l0.575,1.313h0.578l0.575-2.626l0.575,1.313h0.577l0.576-0.583l0.577-0.73l0.575-2.628l0.578,0.73l0.575-0.73
	h0.576l0.574-1.313l0.579,2.044h0.576l0.575-0.73h0.577l0.575-0.729l0.577,0.729l0.574-1.313l0.577,179.993"/>
</svg>
